# xmcd CD database file
#
# Track frame offsets:
#	150
#	17875
#	37026
#	56219
#	78141
#	95203
#	110149
#	133999
#	156664
#	178205
#	197112
#	212586
#	233825
#	252631
#	277913
#
# Disc length: 3935 seconds
#
# Revision: 4
# Processed by: cddbd v1.5.2PL0 Copyright (c) Steve Scherf et al.
# Submitted via: CDex 1.51
#
DISCID=ea0f5d0f
DTITLE=Various Artist - STTW-3114-90's
DYEAR=1900
DGENRE=Data
TTITLE0=Bobby Brown - Two Can Play That Game
TTITLE1=Beats International - Dub Be Good To Me
TTITLE2=Take That - Back For Good
TTITLE3=Alanis Morissette - Head Over Feet
TTITLE4=Extreme - More Than Words
TTITLE5=Lisa Loeb - Stay (i missed you)
TTITLE6=Nirvana - Smells Like Teen Spirit
TTITLE7=Livin' Joy - Don't Stop Movin'
TTITLE8=Red Hot Chili Peppers - Under The Bridge
TTITLE9=Steps - Chain Reaction
TTITLE10=Clash The - Should I Stay Or Should I Go
TTITLE11=Tina Arena - Chains
TTITLE12=Peter Andre Ft Bubber Ranx - Mysterious Girl
TTITLE13=Puff Daddy and Faith Evans - I'll Be Missing You
TTITLE14=Crowded House - Wheather With You
EXTD=
EXTT0=
EXTT1=
EXTT2=
EXTT3=
EXTT4=
EXTT5=
EXTT6=
EXTT7=
EXTT8=
EXTT9=
EXTT10=
EXTT11=
EXTT12=
EXTT13=
EXTT14=
PLAYORDER=
